<mxfile host="app.diagrams.net" modified="2024-06-05T00:46:18.859Z" agent="Mozilla/5.0 (Windows NT 10.0; Win64; x64) AppleWebKit/537.36 (KHTML, like Gecko) Chrome/123.0.0.0 Safari/537.36 Edg/123.0.0.0" etag="UKM1_nWq8Fx2rIiDfaiG" version="24.2.1" type="github">
  <diagram id="C5RBs43oDa-KdzZeNtuy" name="Page-1">
    <mxGraphModel dx="1213" dy="772" grid="0" gridSize="10" guides="1" tooltips="1" connect="1" arrows="1" fold="1" page="1" pageScale="1" pageWidth="3300" pageHeight="4681" math="0" shadow="0">
      <root>
        <mxCell id="WIyWlLk6GJQsqaUBKTNV-0" />
        <mxCell id="WIyWlLk6GJQsqaUBKTNV-1" parent="WIyWlLk6GJQsqaUBKTNV-0" />
        <mxCell id="Nnnm-JO2Qm5f4MvaiOQw-2" value="" style="rounded=0;whiteSpace=wrap;html=1;" vertex="1" parent="WIyWlLk6GJQsqaUBKTNV-1">
          <mxGeometry x="174" y="80" width="80" height="30" as="geometry" />
        </mxCell>
        <mxCell id="Nnnm-JO2Qm5f4MvaiOQw-3" value="" style="rounded=0;whiteSpace=wrap;html=1;" vertex="1" parent="WIyWlLk6GJQsqaUBKTNV-1">
          <mxGeometry x="360" y="80" width="80" height="30" as="geometry" />
        </mxCell>
        <mxCell id="Nnnm-JO2Qm5f4MvaiOQw-4" value="" style="rounded=0;whiteSpace=wrap;html=1;" vertex="1" parent="WIyWlLk6GJQsqaUBKTNV-1">
          <mxGeometry x="550" y="80" width="80" height="30" as="geometry" />
        </mxCell>
        <mxCell id="Nnnm-JO2Qm5f4MvaiOQw-6" value="" style="rounded=0;whiteSpace=wrap;html=1;" vertex="1" parent="WIyWlLk6GJQsqaUBKTNV-1">
          <mxGeometry x="740" y="80" width="80" height="30" as="geometry" />
        </mxCell>
        <mxCell id="Nnnm-JO2Qm5f4MvaiOQw-7" value="" style="rounded=0;whiteSpace=wrap;html=1;" vertex="1" parent="WIyWlLk6GJQsqaUBKTNV-1">
          <mxGeometry x="940" y="80" width="80" height="30" as="geometry" />
        </mxCell>
        <mxCell id="Nnnm-JO2Qm5f4MvaiOQw-11" value="&lt;font style=&quot;font-size: 14px;&quot;&gt;名称&lt;/font&gt;" style="text;html=1;align=center;verticalAlign=middle;resizable=0;points=[];autosize=1;strokeColor=none;fillColor=none;" vertex="1" parent="WIyWlLk6GJQsqaUBKTNV-1">
          <mxGeometry x="124" y="80" width="50" height="30" as="geometry" />
        </mxCell>
        <mxCell id="Nnnm-JO2Qm5f4MvaiOQw-12" value="&lt;span style=&quot;font-size: 14px;&quot;&gt;集群&lt;/span&gt;" style="text;html=1;align=center;verticalAlign=middle;resizable=0;points=[];autosize=1;strokeColor=none;fillColor=none;" vertex="1" parent="WIyWlLk6GJQsqaUBKTNV-1">
          <mxGeometry x="310" y="80" width="50" height="30" as="geometry" />
        </mxCell>
        <mxCell id="Nnnm-JO2Qm5f4MvaiOQw-19" value="部署方式" style="text;html=1;align=center;verticalAlign=middle;resizable=0;points=[];autosize=1;strokeColor=none;fillColor=none;" vertex="1" parent="WIyWlLk6GJQsqaUBKTNV-1">
          <mxGeometry x="480" y="80" width="70" height="30" as="geometry" />
        </mxCell>
        <mxCell id="Nnnm-JO2Qm5f4MvaiOQw-20" value="命名空间" style="text;html=1;align=center;verticalAlign=middle;resizable=0;points=[];autosize=1;strokeColor=none;fillColor=none;" vertex="1" parent="WIyWlLk6GJQsqaUBKTNV-1">
          <mxGeometry x="670" y="80" width="70" height="30" as="geometry" />
        </mxCell>
        <mxCell id="Nnnm-JO2Qm5f4MvaiOQw-22" value="创建时间" style="text;html=1;align=center;verticalAlign=middle;resizable=0;points=[];autosize=1;strokeColor=none;fillColor=none;" vertex="1" parent="WIyWlLk6GJQsqaUBKTNV-1">
          <mxGeometry x="870" y="80" width="70" height="30" as="geometry" />
        </mxCell>
        <mxCell id="Nnnm-JO2Qm5f4MvaiOQw-23" style="edgeStyle=orthogonalEdgeStyle;rounded=0;orthogonalLoop=1;jettySize=auto;html=1;exitX=0.5;exitY=1;exitDx=0;exitDy=0;" edge="1" parent="WIyWlLk6GJQsqaUBKTNV-1" source="Nnnm-JO2Qm5f4MvaiOQw-7" target="Nnnm-JO2Qm5f4MvaiOQw-7">
          <mxGeometry relative="1" as="geometry" />
        </mxCell>
        <mxCell id="Nnnm-JO2Qm5f4MvaiOQw-24" value="" style="rounded=0;whiteSpace=wrap;html=1;" vertex="1" parent="WIyWlLk6GJQsqaUBKTNV-1">
          <mxGeometry x="174" y="140" width="80" height="30" as="geometry" />
        </mxCell>
        <mxCell id="Nnnm-JO2Qm5f4MvaiOQw-25" value="&lt;font style=&quot;font-size: 14px;&quot;&gt;连接地址&lt;/font&gt;" style="text;html=1;align=center;verticalAlign=middle;resizable=0;points=[];autosize=1;strokeColor=none;fillColor=none;" vertex="1" parent="WIyWlLk6GJQsqaUBKTNV-1">
          <mxGeometry x="94" y="140" width="80" height="30" as="geometry" />
        </mxCell>
        <mxCell id="Nnnm-JO2Qm5f4MvaiOQw-26" value="搜索" style="rounded=1;whiteSpace=wrap;html=1;fillColor=#d5e8d4;strokeColor=#82b366;" vertex="1" parent="WIyWlLk6GJQsqaUBKTNV-1">
          <mxGeometry x="910" y="150" width="50" height="30" as="geometry" />
        </mxCell>
        <mxCell id="Nnnm-JO2Qm5f4MvaiOQw-28" value="重置" style="rounded=1;whiteSpace=wrap;html=1;" vertex="1" parent="WIyWlLk6GJQsqaUBKTNV-1">
          <mxGeometry x="970" y="150" width="50" height="30" as="geometry" />
        </mxCell>
        <mxCell id="Nnnm-JO2Qm5f4MvaiOQw-33" value="" style="endArrow=none;dashed=1;html=1;rounded=0;" edge="1" parent="WIyWlLk6GJQsqaUBKTNV-1">
          <mxGeometry width="50" height="50" relative="1" as="geometry">
            <mxPoint x="90" y="40" as="sourcePoint" />
            <mxPoint x="1040" y="40" as="targetPoint" />
          </mxGeometry>
        </mxCell>
        <mxCell id="Nnnm-JO2Qm5f4MvaiOQw-34" value="" style="endArrow=none;dashed=1;html=1;rounded=0;" edge="1" parent="WIyWlLk6GJQsqaUBKTNV-1">
          <mxGeometry width="50" height="50" relative="1" as="geometry">
            <mxPoint x="90" y="220" as="sourcePoint" />
            <mxPoint x="90" y="40" as="targetPoint" />
          </mxGeometry>
        </mxCell>
        <mxCell id="Nnnm-JO2Qm5f4MvaiOQw-35" value="" style="endArrow=none;dashed=1;html=1;rounded=0;" edge="1" parent="WIyWlLk6GJQsqaUBKTNV-1">
          <mxGeometry width="50" height="50" relative="1" as="geometry">
            <mxPoint x="90" y="220" as="sourcePoint" />
            <mxPoint x="1040" y="220" as="targetPoint" />
          </mxGeometry>
        </mxCell>
        <mxCell id="Nnnm-JO2Qm5f4MvaiOQw-36" value="" style="endArrow=none;dashed=1;html=1;rounded=0;" edge="1" parent="WIyWlLk6GJQsqaUBKTNV-1">
          <mxGeometry width="50" height="50" relative="1" as="geometry">
            <mxPoint x="1040" y="220" as="sourcePoint" />
            <mxPoint x="1040" y="40" as="targetPoint" />
          </mxGeometry>
        </mxCell>
        <mxCell id="Nnnm-JO2Qm5f4MvaiOQw-37" value="&lt;font style=&quot;font-size: 24px;&quot;&gt;集群列表&lt;/font&gt;" style="text;html=1;align=center;verticalAlign=middle;resizable=0;points=[];autosize=1;strokeColor=none;fillColor=none;" vertex="1" parent="WIyWlLk6GJQsqaUBKTNV-1">
          <mxGeometry x="94" y="283" width="120" height="40" as="geometry" />
        </mxCell>
        <mxCell id="Nnnm-JO2Qm5f4MvaiOQw-38" value="&lt;font style=&quot;font-size: 14px;&quot;&gt;名称&lt;/font&gt;" style="text;html=1;align=center;verticalAlign=middle;resizable=0;points=[];autosize=1;strokeColor=none;fillColor=none;imageAspect=1;" vertex="1" parent="WIyWlLk6GJQsqaUBKTNV-1">
          <mxGeometry x="129" y="354" width="50" height="30" as="geometry" />
        </mxCell>
        <mxCell id="Nnnm-JO2Qm5f4MvaiOQw-39" value="&lt;font style=&quot;font-size: 14px;&quot;&gt;集群&lt;/font&gt;" style="text;html=1;align=center;verticalAlign=middle;resizable=0;points=[];autosize=1;strokeColor=none;fillColor=none;imageAspect=1;" vertex="1" parent="WIyWlLk6GJQsqaUBKTNV-1">
          <mxGeometry x="220" y="354" width="50" height="30" as="geometry" />
        </mxCell>
        <mxCell id="Nnnm-JO2Qm5f4MvaiOQw-40" value="&lt;font style=&quot;font-size: 14px;&quot;&gt;命名空间&lt;/font&gt;" style="text;html=1;align=center;verticalAlign=middle;resizable=0;points=[];autosize=1;strokeColor=none;fillColor=none;imageAspect=1;" vertex="1" parent="WIyWlLk6GJQsqaUBKTNV-1">
          <mxGeometry x="300" y="354" width="80" height="30" as="geometry" />
        </mxCell>
        <mxCell id="Nnnm-JO2Qm5f4MvaiOQw-41" value="&lt;font style=&quot;font-size: 14px;&quot;&gt;部署方式&lt;/font&gt;" style="text;html=1;align=center;verticalAlign=middle;resizable=0;points=[];autosize=1;strokeColor=none;fillColor=none;imageAspect=1;" vertex="1" parent="WIyWlLk6GJQsqaUBKTNV-1">
          <mxGeometry x="500" y="354" width="80" height="30" as="geometry" />
        </mxCell>
        <mxCell id="Nnnm-JO2Qm5f4MvaiOQw-42" value="&lt;span style=&quot;font-size: 14px;&quot;&gt;连接地址&lt;/span&gt;" style="text;html=1;align=center;verticalAlign=middle;resizable=0;points=[];autosize=1;strokeColor=none;fillColor=none;imageAspect=1;" vertex="1" parent="WIyWlLk6GJQsqaUBKTNV-1">
          <mxGeometry x="640" y="354" width="80" height="30" as="geometry" />
        </mxCell>
        <mxCell id="Nnnm-JO2Qm5f4MvaiOQw-43" value="&lt;font style=&quot;font-size: 14px;&quot;&gt;操作&lt;/font&gt;" style="text;html=1;align=center;verticalAlign=middle;resizable=0;points=[];autosize=1;strokeColor=none;fillColor=none;imageAspect=1;" vertex="1" parent="WIyWlLk6GJQsqaUBKTNV-1">
          <mxGeometry x="940" y="354" width="50" height="30" as="geometry" />
        </mxCell>
        <mxCell id="Nnnm-JO2Qm5f4MvaiOQw-44" value="&lt;span style=&quot;font-size: 14px;&quot;&gt;创建时间&lt;/span&gt;" style="text;html=1;align=center;verticalAlign=middle;resizable=0;points=[];autosize=1;strokeColor=none;fillColor=none;imageAspect=1;" vertex="1" parent="WIyWlLk6GJQsqaUBKTNV-1">
          <mxGeometry x="800" y="354" width="80" height="30" as="geometry" />
        </mxCell>
        <mxCell id="Nnnm-JO2Qm5f4MvaiOQw-45" value="redis-6400" style="text;html=1;align=center;verticalAlign=middle;resizable=0;points=[];autosize=1;strokeColor=none;fillColor=none;" vertex="1" parent="WIyWlLk6GJQsqaUBKTNV-1">
          <mxGeometry x="121" y="392" width="80" height="30" as="geometry" />
        </mxCell>
        <mxCell id="Nnnm-JO2Qm5f4MvaiOQw-46" value="研发网k8s" style="text;html=1;align=center;verticalAlign=middle;resizable=0;points=[];autosize=1;strokeColor=none;fillColor=none;" vertex="1" parent="WIyWlLk6GJQsqaUBKTNV-1">
          <mxGeometry x="205" y="392" width="80" height="30" as="geometry" />
        </mxCell>
        <mxCell id="Nnnm-JO2Qm5f4MvaiOQw-47" value="redis" style="text;html=1;align=center;verticalAlign=middle;resizable=0;points=[];autosize=1;strokeColor=none;fillColor=none;" vertex="1" parent="WIyWlLk6GJQsqaUBKTNV-1">
          <mxGeometry x="315" y="392" width="50" height="30" as="geometry" />
        </mxCell>
        <mxCell id="Nnnm-JO2Qm5f4MvaiOQw-48" value="yaml" style="text;html=1;align=center;verticalAlign=middle;resizable=0;points=[];autosize=1;strokeColor=none;fillColor=none;" vertex="1" parent="WIyWlLk6GJQsqaUBKTNV-1">
          <mxGeometry x="515" y="392" width="50" height="30" as="geometry" />
        </mxCell>
        <mxCell id="Nnnm-JO2Qm5f4MvaiOQw-49" value="202.168.130.10:30200" style="text;html=1;align=center;verticalAlign=middle;resizable=0;points=[];autosize=1;strokeColor=none;fillColor=none;" vertex="1" parent="WIyWlLk6GJQsqaUBKTNV-1">
          <mxGeometry x="610" y="392" width="140" height="30" as="geometry" />
        </mxCell>
        <mxCell id="Nnnm-JO2Qm5f4MvaiOQw-50" value="2023-06-04" style="text;html=1;align=center;verticalAlign=middle;resizable=0;points=[];autosize=1;strokeColor=none;fillColor=none;" vertex="1" parent="WIyWlLk6GJQsqaUBKTNV-1">
          <mxGeometry x="800" y="392" width="80" height="30" as="geometry" />
        </mxCell>
        <mxCell id="Nnnm-JO2Qm5f4MvaiOQw-51" value="查看" style="rounded=1;whiteSpace=wrap;html=1;fillColor=#d5e8d4;strokeColor=#82b366;" vertex="1" parent="WIyWlLk6GJQsqaUBKTNV-1">
          <mxGeometry x="920" y="392" width="50" height="30" as="geometry" />
        </mxCell>
        <mxCell id="Nnnm-JO2Qm5f4MvaiOQw-52" value="更新" style="rounded=1;whiteSpace=wrap;html=1;fillColor=#ffe6cc;strokeColor=#d79b00;" vertex="1" parent="WIyWlLk6GJQsqaUBKTNV-1">
          <mxGeometry x="980" y="392" width="50" height="30" as="geometry" />
        </mxCell>
        <mxCell id="Nnnm-JO2Qm5f4MvaiOQw-53" value="&lt;font style=&quot;font-size: 14px;&quot;&gt;状态&lt;/font&gt;" style="text;html=1;align=center;verticalAlign=middle;resizable=0;points=[];autosize=1;strokeColor=none;fillColor=none;imageAspect=1;" vertex="1" parent="WIyWlLk6GJQsqaUBKTNV-1">
          <mxGeometry x="400" y="354" width="50" height="30" as="geometry" />
        </mxCell>
        <mxCell id="Nnnm-JO2Qm5f4MvaiOQw-54" value="Deployed" style="text;html=1;align=center;verticalAlign=middle;resizable=0;points=[];autosize=1;strokeColor=none;fillColor=none;" vertex="1" parent="WIyWlLk6GJQsqaUBKTNV-1">
          <mxGeometry x="390" y="392" width="70" height="30" as="geometry" />
        </mxCell>
        <mxCell id="Nnnm-JO2Qm5f4MvaiOQw-55" value="" style="endArrow=none;dashed=1;html=1;rounded=0;" edge="1" parent="WIyWlLk6GJQsqaUBKTNV-1">
          <mxGeometry width="50" height="50" relative="1" as="geometry">
            <mxPoint x="90" y="280" as="sourcePoint" />
            <mxPoint x="1040" y="280" as="targetPoint" />
          </mxGeometry>
        </mxCell>
        <mxCell id="Nnnm-JO2Qm5f4MvaiOQw-56" value="" style="endArrow=none;dashed=1;html=1;rounded=0;" edge="1" parent="WIyWlLk6GJQsqaUBKTNV-1">
          <mxGeometry width="50" height="50" relative="1" as="geometry">
            <mxPoint x="90" y="560" as="sourcePoint" />
            <mxPoint x="90" y="280" as="targetPoint" />
          </mxGeometry>
        </mxCell>
        <mxCell id="Nnnm-JO2Qm5f4MvaiOQw-57" value="" style="endArrow=none;dashed=1;html=1;rounded=0;" edge="1" parent="WIyWlLk6GJQsqaUBKTNV-1">
          <mxGeometry width="50" height="50" relative="1" as="geometry">
            <mxPoint x="90" y="560" as="sourcePoint" />
            <mxPoint x="1040" y="560" as="targetPoint" />
          </mxGeometry>
        </mxCell>
        <mxCell id="Nnnm-JO2Qm5f4MvaiOQw-58" value="" style="endArrow=none;dashed=1;html=1;rounded=0;" edge="1" parent="WIyWlLk6GJQsqaUBKTNV-1">
          <mxGeometry width="50" height="50" relative="1" as="geometry">
            <mxPoint x="1040" y="550" as="sourcePoint" />
            <mxPoint x="1040" y="280" as="targetPoint" />
          </mxGeometry>
        </mxCell>
        <mxCell id="Nnnm-JO2Qm5f4MvaiOQw-59" value="新增" style="rounded=1;whiteSpace=wrap;html=1;fillColor=#008a00;strokeColor=#005700;fontColor=#ffffff;" vertex="1" parent="WIyWlLk6GJQsqaUBKTNV-1">
          <mxGeometry x="920" y="288" width="50" height="30" as="geometry" />
        </mxCell>
        <mxCell id="Nnnm-JO2Qm5f4MvaiOQw-61" value="删除" style="rounded=1;whiteSpace=wrap;html=1;fillColor=#d80073;strokeColor=#A50040;fontColor=#ffffff;" vertex="1" parent="WIyWlLk6GJQsqaUBKTNV-1">
          <mxGeometry x="980" y="288" width="50" height="30" as="geometry" />
        </mxCell>
        <mxCell id="Nnnm-JO2Qm5f4MvaiOQw-62" value="" style="rounded=0;whiteSpace=wrap;html=1;" vertex="1" parent="WIyWlLk6GJQsqaUBKTNV-1">
          <mxGeometry x="104" y="402" width="10" height="10" as="geometry" />
        </mxCell>
        <mxCell id="Nnnm-JO2Qm5f4MvaiOQw-63" value="redis-6402" style="text;html=1;align=center;verticalAlign=middle;resizable=0;points=[];autosize=1;strokeColor=none;fillColor=none;" vertex="1" parent="WIyWlLk6GJQsqaUBKTNV-1">
          <mxGeometry x="121" y="454" width="80" height="30" as="geometry" />
        </mxCell>
        <mxCell id="Nnnm-JO2Qm5f4MvaiOQw-64" value="运维网k8s" style="text;html=1;align=center;verticalAlign=middle;resizable=0;points=[];autosize=1;strokeColor=none;fillColor=none;" vertex="1" parent="WIyWlLk6GJQsqaUBKTNV-1">
          <mxGeometry x="205" y="454" width="80" height="30" as="geometry" />
        </mxCell>
        <mxCell id="Nnnm-JO2Qm5f4MvaiOQw-65" value="redis" style="text;html=1;align=center;verticalAlign=middle;resizable=0;points=[];autosize=1;strokeColor=none;fillColor=none;" vertex="1" parent="WIyWlLk6GJQsqaUBKTNV-1">
          <mxGeometry x="315" y="454" width="50" height="30" as="geometry" />
        </mxCell>
        <mxCell id="Nnnm-JO2Qm5f4MvaiOQw-66" value="yaml" style="text;html=1;align=center;verticalAlign=middle;resizable=0;points=[];autosize=1;strokeColor=none;fillColor=none;" vertex="1" parent="WIyWlLk6GJQsqaUBKTNV-1">
          <mxGeometry x="515" y="454" width="50" height="30" as="geometry" />
        </mxCell>
        <mxCell id="Nnnm-JO2Qm5f4MvaiOQw-67" value="26.47.131.175:30330" style="text;html=1;align=center;verticalAlign=middle;resizable=0;points=[];autosize=1;strokeColor=none;fillColor=none;" vertex="1" parent="WIyWlLk6GJQsqaUBKTNV-1">
          <mxGeometry x="610" y="454" width="140" height="30" as="geometry" />
        </mxCell>
        <mxCell id="Nnnm-JO2Qm5f4MvaiOQw-68" value="2022-05-04" style="text;html=1;align=center;verticalAlign=middle;resizable=0;points=[];autosize=1;strokeColor=none;fillColor=none;" vertex="1" parent="WIyWlLk6GJQsqaUBKTNV-1">
          <mxGeometry x="800" y="454" width="80" height="30" as="geometry" />
        </mxCell>
        <mxCell id="Nnnm-JO2Qm5f4MvaiOQw-69" value="查看" style="rounded=1;whiteSpace=wrap;html=1;fillColor=#d5e8d4;strokeColor=#82b366;" vertex="1" parent="WIyWlLk6GJQsqaUBKTNV-1">
          <mxGeometry x="920" y="454" width="50" height="30" as="geometry" />
        </mxCell>
        <mxCell id="Nnnm-JO2Qm5f4MvaiOQw-70" value="更新" style="rounded=1;whiteSpace=wrap;html=1;fillColor=#ffe6cc;strokeColor=#d79b00;" vertex="1" parent="WIyWlLk6GJQsqaUBKTNV-1">
          <mxGeometry x="980" y="454" width="50" height="30" as="geometry" />
        </mxCell>
        <mxCell id="Nnnm-JO2Qm5f4MvaiOQw-71" value="Deployed" style="text;html=1;align=center;verticalAlign=middle;resizable=0;points=[];autosize=1;strokeColor=none;fillColor=none;" vertex="1" parent="WIyWlLk6GJQsqaUBKTNV-1">
          <mxGeometry x="390" y="454" width="70" height="30" as="geometry" />
        </mxCell>
        <mxCell id="Nnnm-JO2Qm5f4MvaiOQw-72" value="" style="rounded=0;whiteSpace=wrap;html=1;" vertex="1" parent="WIyWlLk6GJQsqaUBKTNV-1">
          <mxGeometry x="104" y="464" width="10" height="10" as="geometry" />
        </mxCell>
      </root>
    </mxGraphModel>
  </diagram>
</mxfile>
